HIERARCHY
ROOT root
{
	OFFSET 0.000000 0.000000 0.000000
	CHANNELS 6 Xposition Yposition Zposition Zrotation Yrotation Xrotation
	JOINT lhip
	{
		OFFSET 0.058581 -0.082280 -0.017664
		CHANNELS 3 Zrotation Yrotation Xrotation
		JOINT lknee
		{
			OFFSET 0.043451 -0.386469 0.008037
			CHANNELS 3 Zrotation Yrotation Xrotation
			JOINT lankle
			{
				OFFSET -0.014790 -0.426874 -0.037428
				CHANNELS 3 Zrotation Yrotation Xrotation
				JOINT ltoe
				{
					OFFSET 0.041054 -0.060286 0.122042
					CHANNELS 3 Zrotation Yrotation Xrotation
					End Site
					{
						OFFSET 0.000000 0.000000 0.000000
					}
				}
			}
		}
	}
	JOINT rhip
	{
		OFFSET -0.060310 -0.090513 -0.013543
		CHANNELS 3 Zrotation Yrotation Xrotation
		JOINT rknee
		{
			OFFSET -0.043257 -0.383688 -0.004843
			CHANNELS 3 Zrotation Yrotation Xrotation
			JOINT rankle
			{
				OFFSET 0.019056 -0.420046 -0.034562
				CHANNELS 3 Zrotation Yrotation Xrotation
				JOINT rtoe
				{
					OFFSET -0.034840 -0.062106 0.130323
					CHANNELS 3 Zrotation Yrotation Xrotation
					End Site
					{
						OFFSET 0.000000 0.000000 0.000000
					}
				}
			}
		}
	}
	JOINT lowerback
	{
		OFFSET 0.004439 0.124404 -0.038385
		CHANNELS 3 Zrotation Yrotation Xrotation
		JOINT upperback
		{
			OFFSET 0.004488 0.137956 0.026820
			CHANNELS 3 Zrotation Yrotation Xrotation
			JOINT chest
			{
				OFFSET -0.002265 0.056032 0.002855
				CHANNELS 3 Zrotation Yrotation Xrotation
				JOINT lowerneck
				{
					OFFSET -0.013390 0.211636 -0.033468
					CHANNELS 3 Zrotation Yrotation Xrotation
					JOINT upperneck
					{
						OFFSET 0.010113 0.088937 0.050410
						CHANNELS 3 Zrotation Yrotation Xrotation
						End Site
						{
							OFFSET 0.000000 0.000000 0.000000
						}
					}
				}
				JOINT lclavicle
				{
					OFFSET 0.071702 0.114000 -0.018898
					CHANNELS 3 Zrotation Yrotation Xrotation
					JOINT lshoulder
					{
						OFFSET 0.122921 0.045205 -0.019046
						CHANNELS 3 Zrotation Yrotation Xrotation
						JOINT lelbow
						{
							OFFSET 0.255332 -0.015649 -0.022946
							CHANNELS 3 Zrotation Yrotation Xrotation
							JOINT lwrist
							{
								OFFSET 0.265709 0.012698 -0.007375
								CHANNELS 3 Zrotation Yrotation Xrotation
								End Site
								{
									OFFSET 0.000000 0.000000 0.000000
								}
							}
						}
					}
				}
				JOINT rclavicle
				{
					OFFSET -0.082954 0.112472 -0.023707
					CHANNELS 3 Zrotation Yrotation Xrotation
					JOINT rshoulder
					{
						OFFSET -0.113228 0.046853 -0.008472
						CHANNELS 3 Zrotation Yrotation Xrotation
						JOINT relbow
						{
							OFFSET -0.260127 -0.014369 -0.031269
							CHANNELS 3 Zrotation Yrotation Xrotation
							JOINT rwrist
							{
								OFFSET -0.269108 0.006794 -0.006027
								CHANNELS 3 Zrotation Yrotation Xrotation
								End Site
								{
									OFFSET 0.000000 0.000000 0.000000
								}
							}
						}
					}
				}
			}
		}
	}
}
MOTION
Frames: 8
Frame Time: 0.033333
-1.669584 0.676372 1.004118 -105.127164 6.958577 90.746569 4.949270 -0.649426 -3.269436 -2.538655 -8.940311 15.221848 1.950886 8.369292 -18.737214 0.000000 -0.000000 0.000000 7.794350 -0.597471 -10.296910 -3.056861 -11.601553 15.844995 4.357913 -9.773002 -11.168290 0.000000 -0.000000 0.000000 -6.229886 2.000139 17.156786 -0.618135 -1.255616 0.120651 2.049848 -0.786077 5.107626 2.408509 6.502737 -6.956474 5.192942 -0.380620 -7.598106 -12.499085 -6.067848 -1.381871 -58.639995 -12.862141 8.802861 5.105080 -25.609470 9.782024 -3.321731 -3.972907 -8.929541 10.390839 5.911859 -1.604811 70.608108 0.940877 20.121448 2.151907 40.798955 22.009872 18.298982 3.394966 -23.335063 
-1.677326 0.682126 1.003316 -105.776228 6.254621 90.535967 4.472253 -0.720715 -2.638076 -2.817861 -8.319215 15.838541 1.853893 8.450178 -18.727613 0.000000 -0.000000 0.000000 7.686645 -0.906346 -8.435708 -3.228443 -10.534849 13.812914 3.458424 -9.765074 -11.748095 0.000000 -0.000000 0.000000 -6.367307 2.314729 15.607049 -0.803235 -1.294062 0.918167 2.139906 -0.818256 4.825125 2.210483 6.286846 -5.785336 4.673457 0.112072 -7.518638 -12.833590 -5.523711 -1.004626 -58.702650 -12.007954 8.731964 5.625405 -25.451791 9.374626 -3.377431 -3.890384 -9.583387 10.978445 5.968515 -1.074136 70.004641 1.885197 20.116071 2.625911 38.999382 21.726375 18.510865 3.211130 -23.415761 
-1.684362 0.688129 1.002858 -106.670668 5.591005 90.388807 4.170821 -0.695261 -2.602874 -3.308259 -7.300746 17.420153 1.814072 8.424205 -18.621913 0.000000 -0.000000 0.000000 7.635240 -1.270074 -6.825743 -3.435718 -9.253543 12.166905 2.987433 -9.502259 -12.566233 0.000000 -0.000000 0.000000 -6.358064 2.751578 14.593383 -0.931420 -0.975862 1.079440 2.027097 -0.669203 4.678564 2.252681 6.784670 -5.376760 3.803883 0.839774 -6.698370 -13.255524 -4.471786 -1.036177 -58.823266 -11.215179 8.536060 6.006494 -25.341769 9.306714 -3.885640 -3.886618 -9.824313 11.351458 5.797176 -0.821434 69.788039 2.465476 20.253000 2.666560 37.260504 21.340962 19.135182 3.170080 -23.615074 
-1.691474 0.694558 1.003283 -107.323988 5.063640 90.014871 4.366878 -0.719134 -3.226001 -4.432740 -6.212614 20.671773 1.210108 7.848573 -17.840903 0.000000 -0.000000 0.000000 7.615574 -1.850244 -5.218669 -3.696377 -8.644113 10.993321 2.532378 -9.011105 -12.667539 0.000000 -0.000000 0.000000 -6.117705 3.202367 13.792986 -1.127989 -0.755553 1.508821 1.683424 -0.183980 4.479708 1.645487 6.251176 -5.103030 3.761465 0.113820 -6.242083 -13.374701 -3.933095 -0.968114 -58.962068 -10.613643 8.336035 6.313201 -24.737921 9.090681 -4.387932 -3.893541 -10.321922 11.831010 5.916369 -0.654970 69.821380 2.734955 19.812145 2.428018 35.333462 20.960642 20.385455 3.158112 -23.808844 
-1.698244 0.700537 1.004302 -108.060116 4.551162 89.807004 5.152278 -0.701960 -5.743561 -6.494017 -4.217721 26.723848 0.766671 6.646267 -15.997425 0.000000 -0.000000 0.000000 7.226947 -2.397499 -3.953535 -3.480752 -7.708379 10.164735 2.128962 -8.240550 -12.944754 0.000000 -0.000000 0.000000 -5.898324 3.952796 13.354925 -1.173937 -0.483182 1.388413 1.425122 0.095335 4.293438 1.767700 6.305176 -4.472765 3.175639 0.896101 -5.582615 -13.958114 -3.005125 -1.059412 -58.916418 -9.789429 8.149081 6.364646 -24.327420 9.220620 -4.694206 -3.800298 -10.798200 12.067201 5.680999 -0.149450 69.730729 3.109466 19.721225 2.494897 33.862712 20.500426 20.420929 2.989213 -24.400283 
-1.705063 0.705739 1.005354 -108.343501 4.124632 89.340316 6.426749 -1.103238 -9.560882 -8.799110 -1.566947 35.057596 -0.890125 5.051048 -12.881309 0.000000 -0.000000 0.000000 6.909354 -3.001831 -2.167474 -3.205820 -6.864144 8.882457 1.303871 -7.807755 -13.353202 0.000000 -0.000000 0.000000 -5.386497 5.063666 12.787908 -1.045766 -0.575655 2.195608 0.988802 0.311277 4.334436 1.028794 6.150478 -3.668729 3.086860 0.795462 -6.253040 -14.660347 -2.954497 -1.050462 -58.518406 -9.054121 8.041156 6.284607 -24.121047 8.685767 -4.088663 -3.313757 -11.233636 12.799824 5.991332 0.657327 68.920971 3.446763 19.129066 2.595960 33.509422 19.842410 19.070175 2.349982 -25.487092 
-1.712748 0.709936 1.004229 -107.924272 3.681338 88.912345 7.449407 -1.355505 -14.063875 -10.193433 0.101671 43.548103 -2.089370 3.572281 -12.179851 0.000000 -0.000000 0.000000 6.521205 -4.144464 -0.721574 -3.142019 -6.521611 8.284691 0.655627 -7.632259 -14.480503 0.000000 -0.000000 0.000000 -4.887171 6.272357 13.080062 -0.870129 -0.757900 1.938653 0.713566 0.396468 4.482303 0.548278 5.682165 -4.067533 3.009188 -0.143519 -5.320305 -14.818485 -2.316311 -1.204148 -58.693777 -8.725962 8.032425 5.333101 -23.937476 9.651887 -4.309050 -2.982820 -11.684474 13.250121 5.550215 1.139789 68.464142 3.384968 18.447344 2.998259 33.085640 19.316839 18.654735 2.192986 -26.582972 
-1.720209 0.712641 1.002289 -107.317621 3.246156 88.489230 8.112639 -1.254822 -17.657417 -10.666845 1.111331 47.782508 -1.210943 3.149876 -13.554016 0.000000 -0.000000 0.000000 6.057833 -5.273095 0.551695 -3.183679 -6.070599 7.821458 0.365909 -7.859064 -15.396540 0.000000 -0.000000 0.000000 -4.536233 7.184880 13.966076 -0.882142 -0.722189 1.456468 0.915987 0.446221 4.741370 0.419604 5.331377 -4.734592 2.775901 -0.242421 -4.808162 -15.330357 -1.710936 -1.417923 -58.938602 -8.109127 7.859040 4.758294 -24.738458 10.566756 -3.486406 -2.319310 -11.888928 13.397044 5.355587 1.032762 68.149881 2.847656 18.069256 3.326628 33.164454 18.449991 17.333112 1.771238 -27.333885 
